#!OML:ASF E:\Steps\Project 1\Capture day 1\Session 2\Subject.ASF
:FULLY-SPECIFIED
:DEGREES
425
root 9.01665 16.3233 19.2049 5.07138 -86.49 22.4399
lowerback -27.2029 -2.25917 -6.56965
upperback -3.91864 -1.26271 -1.07604
thorax 10.8065 -0.97929 2.08633
lowerneck 1.08498 1.32545 -16.8195
upperneck 5.18629 0.862851 20.1392
head 1.08354 0.349582 9.13106
rclavicle 1.98785e-016 -1.82882e-014
rhumerus -32.5564 -9.93518 -83.7335
rradius 31.586
rwrist 0.85906
rhand -8.04504 -51.0281
rfingers 7.12502
rthumb 17.8655 -80.2275
lclavicle 1.98785e-016 -1.82882e-014
lhumerus -31.9509 11.4754 76.6331
lradius 12.9815
lwrist -13.827
lhand -23.4682 -12.5366
lfingers 7.12502
lthumb 2.99092 17.4221
rfemur -27.7033 7.18985 18.1541
rtibia 14.3035
rfoot -22.4556 -12.5975
rtoes -27.8782
lfemur -28.8458 -12.445 -17.0235
ltibia 11.3518
lfoot -7.88837 -4.0501
ltoes -28.4486
426
root 9.00802 16.3229 19.204 6.05774 -86.3619 21.3328
lowerback -27.2592 -2.25114 -6.55802
upperback -3.90728 -1.26005 -0.971385
thorax 10.8508 -0.979978 2.19816
lowerneck 1.14232 1.28213 -16.7867
upperneck 5.2147 0.792723 20.0911
head 1.09607 0.312113 9.10884
rclavicle -5.96354e-015 2.62396e-014
rhumerus -32.651 -10.1309 -83.656
rradius 31.5797
rwrist 0.858786
rhand -8.47305 -51.0479
rfingers 7.12502
rthumb 17.4536 -80.2844
lclavicle -5.96354e-015 2.62396e-014
lhumerus -31.8873 9.03368 78.259
lradius 14.0615
lwrist -11.7032
lhand -23.5776 -12.6903
lfingers 7.12502
lthumb 2.88529 17.2699
rfemur -27.4143 7.19341 18.2226
rtibia 14.1457
rfoot -22.5226 -12.6294
rtoes -27.6153
lfemur -28.5444 -12.2988 -17.0637
ltibia 11.0483
lfoot -7.66987 -4.33844
ltoes -27.7269
427
root 9.00195 16.3235 19.2035 6.13822 -86.2786 21.1858
lowerback -27.3655 -2.28227 -6.54627
upperback -3.90378 -1.30187 -0.914352
thorax 10.9146 -1.0018 2.23873
lowerneck 1.1862 1.26877 -16.7676
upperneck 5.23716 0.767365 20.0374
head 1.10054 0.297307 9.08695
rclavicle -6.36111e-015 -3.49861e-014
rhumerus -32.5915 -10.231 -83.722
rradius 31.3971
rwrist 0.892955
rhand -8.88529 -50.9986
rfingers 7.12502
rthumb 17.0569 -80.2698
lclavicle -6.36111e-015 -3.49861e-014
lhumerus -31.93 7.21059 79.4862
lradius 15.117
lwrist -10.0608
lhand -24.022 -12.6865
lfingers 7.12502
lthumb 2.45615 17.2791
rfemur -26.9622 7.60854 18.1281
rtibia 13.5336
rfoot -22.3222 -12.9614
rtoes -26.9917
lfemur -28.2783 -12.2279 -17.1256
ltibia 10.686
lfoot -7.47673 -4.49275
ltoes -27.2068
428
root 8.99654 16.3239 19.202 6.38696 -86.2284 20.8667
lowerback -27.4723 -2.34733 -6.52323
upperback -3.87366 -1.38852 -0.858515
thorax 11.0134 -1.04472 2.25448
lowerneck 1.15981 1.27191 -16.7047
upperneck 5.26343 0.775716 19.9559
head 1.11236 0.303343 9.04775
rclavicle 4.77083e-015 -7.95139e-015
rhumerus -32.4688 -10.7061 -83.7326
rradius 31.1505
rwrist 1.34778
rhand -9.08524 -50.941
rfingers 7.12502
rthumb 16.8644 -80.2287
lclavicle 4.77083e-015 -7.95139e-015
lhumerus -31.9702 5.72802 80.4923
lradius 16.0788
lwrist -8.70197
lhand -24.3755 -12.6063
lfingers 7.12502
lthumb 2.11469 17.3629
rfemur -26.6815 7.70038 18.1414
rtibia 13.1869
rfoot -22.1224 -13.0772
rtoes -27.0091
lfemur -28.0142 -12.2184 -17.1361
ltibia 10.3461
lfoot -7.30686 -4.54633
ltoes -27.2001
429
root 8.99131 16.3214 19.1993 7.574 -86.2275 19.6337
lowerback -27.5725 -2.34274 -6.47122
upperback -3.86577 -1.39478 -0.812547
thorax 11.0752 -1.04807 2.2724
lowerneck 1.12937 1.25323 -16.5574
upperneck 5.28712 0.753788 19.8694
head 1.13042 0.295598 8.99162
rclavicle 1.31198e-014 1.19271e-014
rhumerus -32.5567 -11.6759 -83.5779
rradius 31.0858
rwrist 1.99177
rhand -8.67372 -50.8209
rfingers 7.12502
rthumb 17.2605 -80.0744
lclavicle 1.31198e-014 1.19271e-014
lhumerus -31.9489 4.59584 81.2228
lradius 16.8419
lwrist -8.25129
lhand -24.5674 -12.8717
lfingers 7.12502
lthumb 1.92938 17.0993
rfemur -26.5088 7.53927 18.3035
rtibia 12.976
rfoot -21.9998 -12.9443
rtoes -27.5667
lfemur -27.7886 -12.1491 -17.0598
ltibia 10.0494
lfoot -7.17147 -4.59068
ltoes -26.5685
